<svg version="1.1" id="preloader-svg" class="preloader__logo-svg" xmlns="http://www.w3.org/2000/svg" xmlns:xlink="http://www.w3.org/1999/xlink" x="0px" y="0px"
    viewBox="0 0 831 254" style="enable-background:new 0 0 831 254;" xml:space="preserve">
    <g>
        <path class="logo-svg" d="M22.7,90V18.2h14.9c10.7,0,18.5,0.9,23.4,2.6c7,2.4,12.4,6.7,16.3,12.7c3.9,6,5.9,13.2,5.9,21.5c0,7.2-1.6,13.5-4.7,19
                c-3.1,5.5-7.1,9.5-12.1,12.1c-5,2.6-11.9,3.9-20.9,3.9H22.7z M29.6,83.2h8.3c9.9,0,16.8-0.6,20.7-1.9c5.4-1.8,9.7-4.9,12.7-9.5
                c3.1-4.6,4.6-10.2,4.6-16.8c0-6.9-1.7-12.8-5-17.8c-3.4-4.9-8-8.3-14-10.1c-4.5-1.4-11.9-2-22.2-2h-5.1V83.2z"/>
        <path class="logo-svg" d="M126.5,18.2L160,90h-7.8l-11.3-23.6H110L98.8,90h-8l33.9-71.8H126.5z M125.6,33.4l-12.3,26h24.6L125.6,33.4z"/>
        <path class="logo-svg" d="M165.7,18.2h7.8l23.8,55.5l24.2-55.5h7.8L198,90h-1.6L165.7,18.2z"/>
        <path class="logo-svg" d="M240.3,18.2h7.2V90h-7.2V18.2z"/>
        <path class="logo-svg" d="M264,90V18.2h14.9c10.7,0,18.5,0.9,23.4,2.6c7,2.4,12.4,6.7,16.3,12.7c3.9,6,5.9,13.2,5.9,21.5c0,7.2-1.6,13.5-4.7,19
                c-3.1,5.5-7.1,9.5-12.1,12.1c-5,2.6-11.9,3.9-20.9,3.9H264z M270.8,83.2h8.3c9.9,0,16.8-0.6,20.7-1.9c5.4-1.8,9.7-4.9,12.7-9.5
                c3.1-4.6,4.6-10.2,4.6-16.8c0-6.9-1.7-12.8-5-17.8c-3.4-4.9-8-8.3-14-10.1c-4.5-1.4-11.9-2-22.2-2h-5.1V83.2z"/>
        </g>
        <g>
                <path class="logo-svg" d="M367.2,18.2h13.3l16.7,50.1l16.8-50.1h13.3l12,71.8h-13.2l-7.7-45.4L403.1,90h-12L376,44.6L368.1,90h-13.3L367.2,18.2z"/>
                <path class="logo-svg" d="M472.1,18.2H486L513.6,90h-14.2l-5.6-14.8h-29.3L458.6,90h-14.2L472.1,18.2z M479.1,37.2l-9.6,24.7h19.2L479.1,37.2z"/>
                <path class="logo-svg" d="M524.2,18.2h16.2c10.4,0,18.2,1.3,23.3,3.9s9.3,6.8,12.5,12.6c3.3,5.8,4.9,12.6,4.9,20.4c0,5.5-0.9,10.6-2.8,15.3
                        s-4.4,8.5-7.6,11.5c-3.2,3.1-6.7,5.2-10.5,6.3S550,90,540.7,90h-16.4V18.2z M537.8,31.4v45.3h6.3c6.3,0,10.8-0.7,13.6-2.2
                        c2.8-1.4,5.1-3.8,6.9-7.2c1.8-3.4,2.7-7.6,2.7-12.5c0-7.6-2.1-13.5-6.4-17.7c-3.8-3.8-10-5.7-18.5-5.7H537.8z"/>
                <path class="logo-svg" d="M593.7,18.2h13.7v46.4c0,4,0.3,6.8,1,8.5c0.7,1.7,1.9,3,3.5,4s3.6,1.5,5.8,1.5c2.4,0,4.5-0.6,6.2-1.7
                        c1.7-1.1,2.9-2.5,3.6-4.2c0.7-1.7,1-5,1-9.8V18.2h13.7V61c0,7.2-0.4,12.2-1.2,15c-0.8,2.8-2.4,5.5-4.7,8.1
                         c-2.3,2.6-4.9,4.5-7.9,5.8c-3,1.3-6.5,1.9-10.4,1.9c-5.2,0-9.7-1.2-13.6-3.6s-6.6-5.4-8.3-9c-1.7-3.6-2.5-9.7-2.5-18.2V18.2z"/>
                <path class="logo-svg" d="M658.3,18.2h13.1l30.7,47.3V18.2h13.7V90h-13.2l-30.7-47.1V90h-13.7V18.2z"/>
                <path class="logo-svg" d="M725.1,18.2h39.7v13.5h-13.1V90h-13.9V31.7h-12.7V18.2z"/>
                <path class="logo-svg" d="M811.9,27.9l-10.1,8.9c-3.6-4.9-7.2-7.4-10.9-7.4c-1.8,0-3.3,0.5-4.4,1.4c-1.1,1-1.7,2-1.7,3.2c0,1.2,0.4,2.3,1.2,3.4
                        c1.1,1.4,4.5,4.5,10,9.2c5.2,4.4,8.4,7.1,9.5,8.3c2.8,2.8,4.7,5.5,5.9,8c1.2,2.6,1.7,5.3,1.7,8.4c0,5.9-2,10.8-6.1,14.6
                        c-4.1,3.8-9.4,5.8-15.9,5.8c-5.1,0-9.6-1.3-13.4-3.8c-3.8-2.5-7-6.4-9.8-11.8l11.5-6.9c3.5,6.3,7.4,9.5,11.9,9.5
                        c2.3,0,4.3-0.7,5.9-2.1s2.4-2.9,2.4-4.7c0-1.6-0.6-3.3-1.8-4.9c-1.2-1.6-3.9-4.1-8-7.5c-7.8-6.4-12.9-11.3-15.2-14.8
                        c-2.3-3.5-3.4-6.9-3.4-10.4c0-5,1.9-9.3,5.7-12.8s8.5-5.3,14.1-5.3c3.6,0,7,0.8,10.2,2.5C804.6,20.5,808.1,23.5,811.9,27.9z"/>
        </g>
        <g>
                <path class="logo-svg" d="M29.1,113.1H36L49.8,149h-7.1l-2.8-7.4H25.2l-2.9,7.4h-7.1L29.1,113.1z M32.6,122.6l-4.8,12.3h9.6L32.6,122.6z"/>
                <path class="logo-svg" d="M111.5,113.1h7.2c4,0,6.8,0.4,8.5,1.1c1.7,0.7,3,1.9,4.1,3.5c1,1.6,1.5,3.6,1.5,5.8c0,2.4-0.6,4.3-1.7,5.9
                        s-2.8,2.8-5.1,3.6l8.5,16H127l-8.1-15.2h-0.6V149h-6.8V113.1z M118.3,127.1h2.1c2.2,0,3.7-0.3,4.5-0.9c0.8-0.6,1.2-1.5,1.2-2.8
                        c0-0.8-0.2-1.5-0.6-2c-0.4-0.6-0.9-1-1.6-1.2s-1.9-0.4-3.7-0.4h-1.9V127.1z"/>
                <path class="logo-svg" d="M243,119.4l-4.8,4.6c-3.3-3.4-6.9-5.2-11-5.2c-3.4,0-6.3,1.2-8.7,3.5c-2.3,2.3-3.5,5.2-3.5,8.7c0,2.4,0.5,4.5,1.6,6.4
                        c1,1.9,2.5,3.3,4.4,4.4c1.9,1.1,4,1.6,6.3,1.6c2,0,3.8-0.4,5.4-1.1s3.4-2.1,5.4-4l4.6,4.8c-2.7,2.6-5.2,4.4-7.5,5.4
                        c-2.4,1-5.1,1.5-8.1,1.5c-5.6,0-10.2-1.8-13.7-5.3c-3.6-3.5-5.3-8.1-5.3-13.6c0-3.6,0.8-6.8,2.4-9.5c1.6-2.8,3.9-5,7-6.7
                        c3-1.7,6.3-2.5,9.8-2.5c3,0,5.8,0.6,8.6,1.9C238.7,115.3,241,117.1,243,119.4z"/>
                <path class="logo-svg" d="M304.9,113.1h6.9v13.5h12v-13.5h6.9V149h-6.9v-15.7h-12V149h-6.9V113.1z"/>
                <path class="logo-svg" d="M408.4,113.1h6.8V149h-6.8V113.1z"/>
                <path class="logo-svg" d="M489.3,113.1h19.8v6.7h-6.5V149h-6.9v-29.2h-6.4V113.1z"/>
                <path class="logo-svg" d="M583.8,113.1h19.6v6.7h-12.8v6.5h12.8v6.6h-12.8v9.4h12.8v6.7h-19.6V113.1z"/>
                <path class="logo-svg" d="M712.7,119.4l-4.8,4.6c-3.3-3.4-6.9-5.2-11-5.2c-3.4,0-6.3,1.2-8.7,3.5c-2.3,2.3-3.5,5.2-3.5,8.7c0,2.4,0.5,4.5,1.6,6.4
                        c1,1.9,2.5,3.3,4.4,4.4c1.9,1.1,4,1.6,6.3,1.6c2,0,3.8-0.4,5.4-1.1s3.4-2.1,5.4-4l4.6,4.8c-2.7,2.6-5.2,4.4-7.5,5.4
                        c-2.4,1-5.1,1.5-8.1,1.5c-5.6,0-10.2-1.8-13.7-5.3c-3.6-3.5-5.3-8.1-5.3-13.6c0-3.6,0.8-6.8,2.4-9.5c1.6-2.8,3.9-5,7-6.7
                        c3-1.7,6.3-2.5,9.8-2.5c3,0,5.8,0.6,8.6,1.9C708.4,115.3,710.7,117.1,712.7,119.4z"/>
                <path class="logo-svg" d="M785.1,113.1H805v6.7h-6.5V149h-6.9v-29.2h-6.4V113.1z"/>
        </g>
        <path class="logo-svg logo-svg_line" d="M14,172h798z"/>
        <g>
                 <path class="logo-svg" d="M18.1,208.1h8.1c5.2,0,9.1,0.6,11.6,1.9s4.6,3.4,6.3,6.3c1.6,2.9,2.5,6.3,2.5,10.2c0,2.8-0.5,5.3-1.4,7.6s-2.2,4.2-3.8,5.8
                        c-1.6,1.5-3.4,2.6-5.3,3.2S31,244,26.3,244h-8.2V208.1z M24.9,214.7v22.7h3.2c3.1,0,5.4-0.4,6.8-1.1c1.4-0.7,2.6-1.9,3.5-3.6
                        c0.9-1.7,1.3-3.8,1.3-6.3c0-3.8-1.1-6.8-3.2-8.9c-1.9-1.9-5-2.8-9.3-2.8H24.9z"/>
                <path class="logo-svg" d="M53.1,208.1h19.6v6.7H59.9v6.5h12.8v6.6H59.9v9.4h12.8v6.7H53.1V208.1z"/>
                <path class="logo-svg" d="M98,213l-5.1,4.5c-1.8-2.5-3.6-3.7-5.4-3.7c-0.9,0-1.6,0.2-2.2,0.7c-0.6,0.5-0.9,1-0.9,1.6c0,0.6,0.2,1.2,0.6,1.7
                        c0.6,0.7,2.2,2.3,5,4.6c2.6,2.2,4.2,3.6,4.7,4.1c1.4,1.4,2.4,2.7,2.9,4c0.6,1.3,0.9,2.7,0.9,4.2c0,2.9-1,5.4-3.1,7.3
                        c-2,1.9-4.7,2.9-8,2.9c-2.6,0-4.8-0.6-6.7-1.9c-1.9-1.3-3.5-3.2-4.9-5.9l5.7-3.5c1.7,3.2,3.7,4.8,6,4.8c1.2,0,2.2-0.3,3-1
                        s1.2-1.5,1.2-2.4c0-0.8-0.3-1.6-0.9-2.4c-0.6-0.8-1.9-2.1-4-3.7c-3.9-3.2-6.4-5.7-7.6-7.4c-1.1-1.7-1.7-3.5-1.7-5.2
                        c0-2.5,0.9-4.6,2.8-6.4s4.2-2.7,7-2.7c1.8,0,3.5,0.4,5.1,1.2C94.3,209.3,96.1,210.8,98,213z"/>
                <path class="logo-svg" d="M104.6,208.1h6.8V244h-6.8V208.1z"/>
                <path class="logo-svg" d="M152.3,213.9l-4.8,4.8c-3-3.2-6.6-4.8-10.7-4.8c-3.5,0-6.5,1.2-8.9,3.5c-2.4,2.3-3.6,5.2-3.6,8.5c0,3.5,1.2,6.4,3.7,8.8
                        c2.5,2.4,5.5,3.6,9.2,3.6c2.4,0,4.4-0.5,6-1.5c1.6-1,2.9-2.5,3.9-4.7h-10.4v-6.4h18.1l0,1.5c0,3.1-0.8,6.1-2.4,8.9
                        c-1.6,2.8-3.7,5-6.3,6.4s-5.6,2.2-9.1,2.2c-3.7,0-7.1-0.8-10-2.4c-2.9-1.6-5.2-3.9-6.9-6.9c-1.7-3-2.6-6.2-2.6-9.7
                        c0-4.8,1.6-8.9,4.7-12.4c3.7-4.2,8.6-6.3,14.6-6.3c3.1,0,6,0.6,8.8,1.7C147.8,209.9,150.1,211.6,152.3,213.9z"/>
                <path class="logo-svg" d="M161.1,208.1h6.6l15.4,23.6v-23.6h6.8V244h-6.6L168,220.4V244h-6.8V208.1z"/>
                <path class="logo-svg" d="M198.1,208.1h19.6v6.7h-12.8v6.5h12.8v6.6h-12.8v9.4h12.8v6.7h-19.6V208.1z"/>
                <path class="logo-svg" d="M224.5,208.1h7.2c4,0,6.8,0.4,8.5,1.1s3,1.9,4.1,3.5c1,1.6,1.5,3.6,1.5,5.8c0,2.4-0.6,4.3-1.7,5.9
                        c-1.1,1.6-2.8,2.8-5.1,3.6l8.5,16h-7.5l-8.1-15.2h-0.6V244h-6.8V208.1z M231.4,222.1h2.1c2.2,0,3.7-0.3,4.5-0.9
                        c0.8-0.6,1.2-1.5,1.2-2.8c0-0.8-0.2-1.5-0.6-2c-0.4-0.6-0.9-1-1.6-1.2s-1.9-0.4-3.7-0.4h-1.9V222.1z"/>
        </g>
<style type="text/css">
        .logo-svg{
            fill: none;
            stroke-width: 3;
            stroke-miterlimit: 10;
        }
    .preloader__logo-svg {
      stroke: #222;
      fill: none;
      stroke-dasharray: 1900;
      opacity: 1;
      -webkit-animation: logo_mdst 2.5s cubic-bezier(0.88, 0.13, 0.91, 0.38) infinite alternate;
         -moz-animation: logo_mdst 2.5s cubic-bezier(0.88, 0.13, 0.91, 0.38) infinite alternate;
           -o-animation: logo_mdst 2.5s cubic-bezier(0.88, 0.13, 0.91, 0.38) infinite alternate;
              animation: logo_mdst 2.5s cubic-bezier(0.88, 0.13, 0.91, 0.38) infinite alternate; }

@-webkit-keyframes logo_mdst {
  0% {
    opacity: 0;
    stroke-dashoffset: 1900;
    stroke: #fff; }
  2% {
    opacity: 1;
    stroke-dashoffset: 1900; }
  20% {
    opacity: 1;
    stroke-dashoffset: 1900; }
  85% {
    opacity: 1; }
  90% {
    opacity: 1;
    stroke-dashoffset: 0; }
  95% {
    opacity: 1;
    stroke-dashoffset: 0;
    stroke: #222; }
  100% {
    opacity: 1;
    stroke-dashoffset: 0;
    stroke: #000; } }

@-moz-keyframes logo_mdst {
  0% {
    opacity: 0;
    stroke-dashoffset: 1900;
    stroke: #fff; }
  2% {
    opacity: 1;
    stroke-dashoffset: 1900; }
  20% {
    opacity: 1;
    stroke-dashoffset: 1900; }
  85% {
    opacity: 1; }
  90% {
    opacity: 1;
    stroke-dashoffset: 0; }
  95% {
    opacity: 1;
    stroke-dashoffset: 0;
    stroke: #222; }
  100% {
    opacity: 1;
    stroke-dashoffset: 0;
    stroke: #000; } }

@-o-keyframes logo_mdst {
  0% {
    opacity: 0;
    stroke-dashoffset: 1900;
    stroke: #fff; }
  2% {
    opacity: 1;
    stroke-dashoffset: 1900; }
  20% {
    opacity: 1;
    stroke-dashoffset: 1900; }
  85% {
    opacity: 1; }
  90% {
    opacity: 1;
    stroke-dashoffset: 0; }
  95% {
    opacity: 1;
    stroke-dashoffset: 0;
    stroke: #222; }
  100% {
    opacity: 1;
    stroke-dashoffset: 0;
    stroke: #000; } }

@keyframes logo_mdst {
  0% {
    opacity: 0;
    stroke-dashoffset: 1900;
    stroke: #fff; }
  2% {
    opacity: 1;
    stroke-dashoffset: 1900; }
  20% {
    opacity: 1;
    stroke-dashoffset: 1900; }
  85% {
    opacity: 1; }
  90% {
    opacity: 1;
    stroke-dashoffset: 0; }
  95% {
    opacity: 1;
    stroke-dashoffset: 0;
    stroke: #222; }
  100% {
    opacity: 1;
    stroke-dashoffset: 0;
    stroke: #000; } }
    </style>
</svg>
