<svg id="preloader-svg" xmlns="http://www.w3.org/2000/svg" viewBox="0 0 831 254" style="-webkit-animation:logo_mdst 2.5s cubic-bezier(.88,.13,.91,.38) infinite alternate;-moz-animation:logo_mdst 2.5s cubic-bezier(.88,.13,.91,.38) infinite alternate;-o-animation:logo_mdst 2.5s cubic-bezier(.88,.13,.91,.38) infinite alternate;animation:logo_mdst 2.5s cubic-bezier(.88,.13,.91,.38) infinite alternate" stroke="#222" fill="none" stroke-dasharray="1900"><path class="logo-svg" d="M22.7 90V18.2h14.9c10.7 0 18.5.9 23.4 2.6 7 2.4 12.4 6.7 16.3 12.7 3.9 6 5.9 13.2 5.9 21.5 0 7.2-1.6 13.5-4.7 19s-7.1 9.5-12.1 12.1c-5 2.6-11.9 3.9-20.9 3.9H22.7zm6.9-6.8h8.3c9.9 0 16.8-.6 20.7-1.9 5.4-1.8 9.7-4.9 12.7-9.5 3.1-4.6 4.6-10.2 4.6-16.8 0-6.9-1.7-12.8-5-17.8-3.4-4.9-8-8.3-14-10.1-4.5-1.4-11.9-2-22.2-2h-5.1v58.1zm96.9-65L160 90h-7.8l-11.3-23.6H110L98.8 90h-8l33.9-71.8h1.8zm-.9 15.2l-12.3 26h24.6l-12.3-26zm40.1-15.2h7.8l23.8 55.5 24.2-55.5h7.8L198 90h-1.6l-30.7-71.8zm74.6 0h7.2V90h-7.2V18.2zM264 90V18.2h14.9c10.7 0 18.5.9 23.4 2.6 7 2.4 12.4 6.7 16.3 12.7 3.9 6 5.9 13.2 5.9 21.5 0 7.2-1.6 13.5-4.7 19s-7.1 9.5-12.1 12.1c-5 2.6-11.9 3.9-20.9 3.9H264zm6.8-6.8h8.3c9.9 0 16.8-.6 20.7-1.9 5.4-1.8 9.7-4.9 12.7-9.5 3.1-4.6 4.6-10.2 4.6-16.8 0-6.9-1.7-12.8-5-17.8-3.4-4.9-8-8.3-14-10.1-4.5-1.4-11.9-2-22.2-2h-5.1v58.1zm96.4-65h13.3l16.7 50.1L414 18.2h13.3l12 71.8h-13.2l-7.7-45.4L403.1 90h-12L376 44.6 368.1 90h-13.3l12.4-71.8zm104.9 0H486L513.6 90h-14.2l-5.6-14.8h-29.3L458.6 90h-14.2l27.7-71.8zm7 19l-9.6 24.7h19.2l-9.6-24.7zm45.1-19h16.2c10.4 0 18.2 1.3 23.3 3.9s9.3 6.8 12.5 12.6c3.3 5.8 4.9 12.6 4.9 20.4 0 5.5-.9 10.6-2.8 15.3s-4.4 8.5-7.6 11.5c-3.2 3.1-6.7 5.2-10.5 6.3S550 90 540.7 90h-16.4V18.2zm13.6 13.2v45.3h6.3c6.3 0 10.8-.7 13.6-2.2 2.8-1.4 5.1-3.8 6.9-7.2 1.8-3.4 2.7-7.6 2.7-12.5 0-7.6-2.1-13.5-6.4-17.7-3.8-3.8-10-5.7-18.5-5.7h-4.6zm55.9-13.2h13.7v46.4c0 4 .3 6.8 1 8.5.7 1.7 1.9 3 3.5 4s3.6 1.5 5.8 1.5c2.4 0 4.5-.6 6.2-1.7 1.7-1.1 2.9-2.5 3.6-4.2.7-1.7 1-5 1-9.8V18.2h13.7V61c0 7.2-.4 12.2-1.2 15-.8 2.8-2.4 5.5-4.7 8.1-2.3 2.6-4.9 4.5-7.9 5.8-3 1.3-6.5 1.9-10.4 1.9-5.2 0-9.7-1.2-13.6-3.6s-6.6-5.4-8.3-9c-1.7-3.6-2.5-9.7-2.5-18.2V18.2zm64.6 0h13.1l30.7 47.3V18.2h13.7V90h-13.2l-30.7-47.1V90h-13.7V18.2zm66.8 0h39.7v13.5h-13.1V90h-13.9V31.7h-12.7V18.2zm86.8 9.7l-10.1 8.9c-3.6-4.9-7.2-7.4-10.9-7.4-1.8 0-3.3.5-4.4 1.4-1.1 1-1.7 2-1.7 3.2 0 1.2.4 2.3 1.2 3.4 1.1 1.4 4.5 4.5 10 9.2 5.2 4.4 8.4 7.1 9.5 8.3 2.8 2.8 4.7 5.5 5.9 8 1.2 2.6 1.7 5.3 1.7 8.4 0 5.9-2 10.8-6.1 14.6-4.1 3.8-9.4 5.8-15.9 5.8-5.1 0-9.6-1.3-13.4-3.8-3.8-2.5-7-6.4-9.8-11.8l11.5-6.9c3.5 6.3 7.4 9.5 11.9 9.5 2.3 0 4.3-.7 5.9-2.1s2.4-2.9 2.4-4.7c0-1.6-.6-3.3-1.8-4.9-1.2-1.6-3.9-4.1-8-7.5-7.8-6.4-12.9-11.3-15.2-14.8-2.3-3.5-3.4-6.9-3.4-10.4 0-5 1.9-9.3 5.7-12.8s8.5-5.3 14.1-5.3c3.6 0 7 .8 10.2 2.5 3.4 1.8 6.9 4.8 10.7 9.2zM29.1 113.1H36L49.8 149h-7.1l-2.8-7.4H25.2l-2.9 7.4h-7.1l13.9-35.9zm3.5 9.5l-4.8 12.3h9.6l-4.8-12.3zm78.9-9.5h7.2c4 0 6.8.4 8.5 1.1 1.7.7 3 1.9 4.1 3.5 1 1.6 1.5 3.6 1.5 5.8 0 2.4-.6 4.3-1.7 5.9s-2.8 2.8-5.1 3.6l8.5 16H127l-8.1-15.2h-.6V149h-6.8v-35.9zm6.8 14h2.1c2.2 0 3.7-.3 4.5-.9.8-.6 1.2-1.5 1.2-2.8 0-.8-.2-1.5-.6-2-.4-.6-.9-1-1.6-1.2s-1.9-.4-3.7-.4h-1.9v7.3zm124.7-7.7l-4.8 4.6c-3.3-3.4-6.9-5.2-11-5.2-3.4 0-6.3 1.2-8.7 3.5-2.3 2.3-3.5 5.2-3.5 8.7 0 2.4.5 4.5 1.6 6.4 1 1.9 2.5 3.3 4.4 4.4 1.9 1.1 4 1.6 6.3 1.6 2 0 3.8-.4 5.4-1.1s3.4-2.1 5.4-4l4.6 4.8c-2.7 2.6-5.2 4.4-7.5 5.4-2.4 1-5.1 1.5-8.1 1.5-5.6 0-10.2-1.8-13.7-5.3-3.6-3.5-5.3-8.1-5.3-13.6 0-3.6.8-6.8 2.4-9.5 1.6-2.8 3.9-5 7-6.7 3-1.7 6.3-2.5 9.8-2.5 3 0 5.8.6 8.6 1.9 2.8 1 5.1 2.8 7.1 5.1zm61.9-6.3h6.9v13.5h12v-13.5h6.9V149h-6.9v-15.7h-12V149h-6.9v-35.9zm103.5 0h6.8V149h-6.8v-35.9zm80.9 0h19.8v6.7h-6.5V149h-6.9v-29.2h-6.4v-6.7zm94.5 0h19.6v6.7h-12.8v6.5h12.8v6.6h-12.8v9.4h12.8v6.7h-19.6v-35.9zm128.9 6.3l-4.8 4.6c-3.3-3.4-6.9-5.2-11-5.2-3.4 0-6.3 1.2-8.7 3.5-2.3 2.3-3.5 5.2-3.5 8.7 0 2.4.5 4.5 1.6 6.4 1 1.9 2.5 3.3 4.4 4.4 1.9 1.1 4 1.6 6.3 1.6 2 0 3.8-.4 5.4-1.1s3.4-2.1 5.4-4l4.6 4.8c-2.7 2.6-5.2 4.4-7.5 5.4-2.4 1-5.1 1.5-8.1 1.5-5.6 0-10.2-1.8-13.7-5.3-3.6-3.5-5.3-8.1-5.3-13.6 0-3.6.8-6.8 2.4-9.5 1.6-2.8 3.9-5 7-6.7 3-1.7 6.3-2.5 9.8-2.5 3 0 5.8.6 8.6 1.9 2.8 1 5.1 2.8 7.1 5.1zm72.4-6.3H805v6.7h-6.5V149h-6.9v-29.2h-6.4v-6.7z"/><path class="logo-svg logo-svg_line" d="M14 172h798z"/><path class="logo-svg" d="M18.1 208.1h8.1c5.2 0 9.1.6 11.6 1.9s4.6 3.4 6.3 6.3c1.6 2.9 2.5 6.3 2.5 10.2 0 2.8-.5 5.3-1.4 7.6s-2.2 4.2-3.8 5.8c-1.6 1.5-3.4 2.6-5.3 3.2s-5.1.9-9.8.9h-8.2v-35.9zm6.8 6.6v22.7h3.2c3.1 0 5.4-.4 6.8-1.1 1.4-.7 2.6-1.9 3.5-3.6.9-1.7 1.3-3.8 1.3-6.3 0-3.8-1.1-6.8-3.2-8.9-1.9-1.9-5-2.8-9.3-2.8h-2.3zm28.2-6.6h19.6v6.7H59.9v6.5h12.8v6.6H59.9v9.4h12.8v6.7H53.1v-35.9zM98 213l-5.1 4.5c-1.8-2.5-3.6-3.7-5.4-3.7-.9 0-1.6.2-2.2.7-.6.5-.9 1-.9 1.6 0 .6.2 1.2.6 1.7.6.7 2.2 2.3 5 4.6 2.6 2.2 4.2 3.6 4.7 4.1 1.4 1.4 2.4 2.7 2.9 4 .6 1.3.9 2.7.9 4.2 0 2.9-1 5.4-3.1 7.3-2 1.9-4.7 2.9-8 2.9-2.6 0-4.8-.6-6.7-1.9-1.9-1.3-3.5-3.2-4.9-5.9l5.7-3.5c1.7 3.2 3.7 4.8 6 4.8 1.2 0 2.2-.3 3-1s1.2-1.5 1.2-2.4c0-.8-.3-1.6-.9-2.4-.6-.8-1.9-2.1-4-3.7-3.9-3.2-6.4-5.7-7.6-7.4-1.1-1.7-1.7-3.5-1.7-5.2 0-2.5.9-4.6 2.8-6.4s4.2-2.7 7-2.7c1.8 0 3.5.4 5.1 1.2 1.9.9 3.7 2.4 5.6 4.6zm6.6-4.9h6.8V244h-6.8v-35.9zm47.7 5.8l-4.8 4.8c-3-3.2-6.6-4.8-10.7-4.8-3.5 0-6.5 1.2-8.9 3.5-2.4 2.3-3.6 5.2-3.6 8.5 0 3.5 1.2 6.4 3.7 8.8 2.5 2.4 5.5 3.6 9.2 3.6 2.4 0 4.4-.5 6-1.5 1.6-1 2.9-2.5 3.9-4.7h-10.4v-6.4h18.1v1.5c0 3.1-.8 6.1-2.4 8.9-1.6 2.8-3.7 5-6.3 6.4s-5.6 2.2-9.1 2.2c-3.7 0-7.1-.8-10-2.4-2.9-1.6-5.2-3.9-6.9-6.9-1.7-3-2.6-6.2-2.6-9.7 0-4.8 1.6-8.9 4.7-12.4 3.7-4.2 8.6-6.3 14.6-6.3 3.1 0 6 .6 8.8 1.7 2.2 1.2 4.5 2.9 6.7 5.2zm8.8-5.8h6.6l15.4 23.6v-23.6h6.8V244h-6.6L168 220.4V244h-6.8v-35.9zm37 0h19.6v6.7h-12.8v6.5h12.8v6.6h-12.8v9.4h12.8v6.7h-19.6v-35.9zm26.4 0h7.2c4 0 6.8.4 8.5 1.1s3 1.9 4.1 3.5c1 1.6 1.5 3.6 1.5 5.8 0 2.4-.6 4.3-1.7 5.9-1.1 1.6-2.8 2.8-5.1 3.6l8.5 16H240l-8.1-15.2h-.6V244h-6.8v-35.9zm6.9 14h2.1c2.2 0 3.7-.3 4.5-.9.8-.6 1.2-1.5 1.2-2.8 0-.8-.2-1.5-.6-2-.4-.6-.9-1-1.6-1.2s-1.9-.4-3.7-.4h-1.9v7.3z"/><style>@-webkit-keyframes logo_mdst{0%{opacity:0;stroke-dashoffset:1900;stroke:#fff}2%,20%{opacity:1;stroke-dashoffset:1900}85%{opacity:1}90%{opacity:1;stroke-dashoffset:0}95%{opacity:1;stroke-dashoffset:0;stroke:#222}}@-moz-keyframes logo_mdst{0%{opacity:0;stroke-dashoffset:1900;stroke:#fff}2%,20%{opacity:1;stroke-dashoffset:1900}85%{opacity:1}90%{opacity:1;stroke-dashoffset:0}95%{opacity:1;stroke-dashoffset:0;stroke:#222}}@-o-keyframes logo_mdst{0%{opacity:0;stroke-dashoffset:1900;stroke:#fff}2%,20%{opacity:1;stroke-dashoffset:1900}85%{opacity:1}90%{opacity:1;stroke-dashoffset:0}95%{opacity:1;stroke-dashoffset:0;stroke:#222}}@keyframes logo_mdst{0%{opacity:0;stroke-dashoffset:1900;stroke:#fff}2%,20%{opacity:1;stroke-dashoffset:1900}85%{opacity:1}90%{opacity:1;stroke-dashoffset:0}95%{opacity:1;stroke-dashoffset:0;stroke:#222}}.logo-svg{fill:none;stroke-width:3;stroke-miterlimit:10}</style></svg>